<svg width="202" height="29" viewBox="0 0 202 29" fill="none" xmlns="http://www.w3.org/2000/svg">
<path d="M43.2287 7.8125V5.54545H56.7372V7.8125H51.2912V23H48.6662V7.8125H43.2287ZM63.1335 23.2642C61.9063 23.2642 60.8352 22.983 59.9205 22.4205C59.0057 21.858 58.2955 21.071 57.7898 20.0597C57.2841 19.0483 57.0312 17.8665 57.0312 16.5142C57.0312 15.1562 57.2841 13.9687 57.7898 12.9517C58.2955 11.9347 59.0057 11.1449 59.9205 10.5824C60.8352 10.0199 61.9063 9.73864 63.1335 9.73864C64.3608 9.73864 65.4318 10.0199 66.3466 10.5824C67.2614 11.1449 67.9716 11.9347 68.4773 12.9517C68.983 13.9687 69.2358 15.1562 69.2358 16.5142C69.2358 17.8665 68.983 19.0483 68.4773 20.0597C67.9716 21.071 67.2614 21.858 66.3466 22.4205C65.4318 22.983 64.3608 23.2642 63.1335 23.2642ZM63.142 21.125C63.9375 21.125 64.5966 20.9148 65.1193 20.4943C65.642 20.0739 66.0284 19.5142 66.2784 18.8153C66.5341 18.1165 66.6619 17.3466 66.6619 16.5057C66.6619 15.6705 66.5341 14.9034 66.2784 14.2045C66.0284 13.5 65.642 12.9347 65.1193 12.5085C64.5966 12.0824 63.9375 11.8693 63.142 11.8693C62.3409 11.8693 61.6761 12.0824 61.1477 12.5085C60.625 12.9347 60.2358 13.5 59.9801 14.2045C59.7301 14.9034 59.6051 15.6705 59.6051 16.5057C59.6051 17.3466 59.7301 18.1165 59.9801 18.8153C60.2358 19.5142 60.625 20.0739 61.1477 20.4943C61.6761 20.9148 62.3409 21.125 63.142 21.125ZM76.9808 23.2557C75.924 23.2557 74.9808 22.9858 74.1513 22.446C73.3274 21.9006 72.6797 21.125 72.2081 20.1193C71.7422 19.108 71.5092 17.8949 71.5092 16.4801C71.5092 15.0653 71.745 13.8551 72.2166 12.8494C72.6939 11.8437 73.3473 11.0739 74.1768 10.5398C75.0064 10.0057 75.9467 9.73864 76.9979 9.73864C77.8104 9.73864 78.4638 9.875 78.9581 10.1477C79.4581 10.4148 79.8445 10.7273 80.1172 11.0852C80.3956 11.4432 80.6115 11.7585 80.7649 12.0312H80.9183V5.54545H83.4666V23H80.978V20.9631H80.7649C80.6115 21.2415 80.3899 21.5597 80.1001 21.9176C79.8161 22.2756 79.424 22.5881 78.924 22.8551C78.424 23.1222 77.7763 23.2557 76.9808 23.2557ZM77.5433 21.0824C78.2763 21.0824 78.8956 20.8892 79.4013 20.5028C79.9126 20.1108 80.299 19.5682 80.5604 18.875C80.8274 18.1818 80.9609 17.375 80.9609 16.4545C80.9609 15.5455 80.8303 14.75 80.5689 14.0682C80.3075 13.3864 79.924 12.8551 79.4183 12.4744C78.9126 12.0937 78.2876 11.9034 77.5433 11.9034C76.7763 11.9034 76.1371 12.1023 75.6257 12.5C75.1143 12.8977 74.728 13.4403 74.4666 14.1278C74.2109 14.8153 74.0831 15.5909 74.0831 16.4545C74.0831 17.3295 74.2138 18.1165 74.4751 18.8153C74.7365 19.5142 75.1229 20.0682 75.6342 20.4773C76.1513 20.8807 76.7876 21.0824 77.5433 21.0824ZM90.9134 23.2898C90.0838 23.2898 89.3338 23.1364 88.6634 22.8295C87.9929 22.517 87.4616 22.0653 87.0696 21.4744C86.6832 20.8835 86.4901 20.1591 86.4901 19.3011C86.4901 18.5625 86.6321 17.9545 86.9162 17.4773C87.2003 17 87.5838 16.6222 88.0668 16.3438C88.5497 16.0653 89.0895 15.8551 89.6861 15.7131C90.2827 15.571 90.8906 15.4631 91.5099 15.3892C92.294 15.2983 92.9304 15.2244 93.419 15.1676C93.9077 15.1051 94.2628 15.0057 94.4844 14.8693C94.706 14.733 94.8168 14.5114 94.8168 14.2045V14.1449C94.8168 13.4006 94.6065 12.8239 94.1861 12.4148C93.7713 12.0057 93.152 11.8011 92.3281 11.8011C91.4702 11.8011 90.794 11.9915 90.2997 12.3722C89.8111 12.7472 89.473 13.1648 89.2855 13.625L86.8906 13.0795C87.1747 12.2841 87.5895 11.642 88.1349 11.1534C88.6861 10.6591 89.3196 10.3011 90.0355 10.0795C90.7514 9.85227 91.5043 9.73864 92.294 9.73864C92.8168 9.73864 93.3707 9.80114 93.956 9.92614C94.5469 10.0455 95.098 10.267 95.6094 10.5909C96.1264 10.9148 96.5497 11.3778 96.8793 11.9801C97.2088 12.5767 97.3736 13.3523 97.3736 14.3068V23H94.8849V21.2102H94.7827C94.6179 21.5398 94.3707 21.8636 94.0412 22.1818C93.7116 22.5 93.2884 22.7642 92.7713 22.9744C92.2543 23.1847 91.6349 23.2898 90.9134 23.2898ZM91.4673 21.2443C92.1719 21.2443 92.7741 21.1051 93.2741 20.8267C93.7798 20.5483 94.1634 20.1847 94.4247 19.7358C94.6918 19.2812 94.8253 18.7955 94.8253 18.2784V16.5909C94.7344 16.6818 94.5582 16.767 94.2969 16.8466C94.0412 16.9205 93.7486 16.9858 93.419 17.0426C93.0895 17.0937 92.7685 17.142 92.456 17.1875C92.1435 17.2273 91.8821 17.2614 91.6719 17.2898C91.1776 17.3523 90.7259 17.4574 90.3168 17.6051C89.9134 17.7528 89.5895 17.9659 89.3452 18.2443C89.1065 18.517 88.9872 18.8807 88.9872 19.3352C88.9872 19.9659 89.2202 20.4432 89.6861 20.767C90.152 21.0852 90.7457 21.2443 91.4673 21.2443ZM101.91 27.9091C101.529 27.9091 101.183 27.8778 100.87 27.8153C100.558 27.7585 100.325 27.696 100.171 27.6278L100.785 25.5398C101.251 25.6648 101.665 25.7188 102.029 25.7017C102.393 25.6847 102.714 25.5483 102.992 25.2926C103.276 25.0369 103.526 24.6193 103.742 24.0398L104.058 23.1705L99.2678 9.90909H101.995L105.31 20.0682H105.447L108.762 9.90909H111.498L106.103 24.7472C105.853 25.429 105.535 26.0057 105.148 26.4773C104.762 26.9545 104.302 27.3125 103.768 27.5511C103.234 27.7898 102.614 27.9091 101.91 27.9091ZM116.903 5.54545V7.18182C116.903 7.66477 116.812 8.1733 116.631 8.70739C116.455 9.2358 116.205 9.74432 115.881 10.233C115.557 10.7216 115.176 11.142 114.739 11.4943L113.477 10.5909C113.813 10.1023 114.102 9.58239 114.347 9.03125C114.597 8.48011 114.722 7.87216 114.722 7.20739V5.54545H116.903ZM127.523 13.1051L125.213 13.5142C125.116 13.2187 124.963 12.9375 124.753 12.6705C124.548 12.4034 124.27 12.1847 123.918 12.0142C123.565 11.8437 123.125 11.7585 122.597 11.7585C121.875 11.7585 121.273 11.9205 120.79 12.2443C120.307 12.5625 120.065 12.9744 120.065 13.4801C120.065 13.9176 120.227 14.2699 120.551 14.5369C120.875 14.804 121.398 15.0227 122.119 15.1932L124.199 15.6705C125.403 15.9489 126.301 16.3778 126.892 16.9574C127.483 17.5369 127.778 18.2898 127.778 19.2159C127.778 20 127.551 20.6989 127.097 21.3125C126.648 21.9205 126.02 22.3977 125.213 22.7443C124.412 23.0909 123.483 23.2642 122.426 23.2642C120.96 23.2642 119.764 22.9517 118.838 22.3267C117.912 21.696 117.344 20.8011 117.134 19.642L119.597 19.267C119.75 19.9091 120.065 20.3949 120.543 20.7244C121.02 21.0483 121.642 21.2102 122.409 21.2102C123.244 21.2102 123.912 21.0369 124.412 20.6903C124.912 20.3381 125.162 19.9091 125.162 19.4034C125.162 18.9943 125.009 18.6506 124.702 18.3722C124.401 18.0937 123.938 17.8835 123.312 17.7415L121.097 17.2557C119.875 16.9773 118.972 16.5341 118.386 15.9261C117.807 15.3182 117.517 14.5483 117.517 13.6165C117.517 12.8437 117.733 12.1676 118.165 11.5881C118.597 11.0085 119.193 10.5568 119.955 10.233C120.716 9.90341 121.588 9.73864 122.571 9.73864C123.986 9.73864 125.099 10.0455 125.912 10.6591C126.724 11.267 127.261 12.0824 127.523 13.1051ZM136.276 7.8125V5.54545H149.784V7.8125H144.338V23H141.713V7.8125H136.276ZM154.593 23.2898C153.763 23.2898 153.013 23.1364 152.343 22.8295C151.673 22.517 151.141 22.0653 150.749 21.4744C150.363 20.8835 150.17 20.1591 150.17 19.3011C150.17 18.5625 150.312 17.9545 150.596 17.4773C150.88 17 151.263 16.6222 151.746 16.3438C152.229 16.0653 152.769 15.8551 153.366 15.7131C153.962 15.571 154.57 15.4631 155.19 15.3892C155.974 15.2983 156.61 15.2244 157.099 15.1676C157.587 15.1051 157.942 15.0057 158.164 14.8693C158.386 14.733 158.496 14.5114 158.496 14.2045V14.1449C158.496 13.4006 158.286 12.8239 157.866 12.4148C157.451 12.0057 156.832 11.8011 156.008 11.8011C155.15 11.8011 154.474 11.9915 153.979 12.3722C153.491 12.7472 153.153 13.1648 152.965 13.625L150.57 13.0795C150.854 12.2841 151.269 11.642 151.815 11.1534C152.366 10.6591 152.999 10.3011 153.715 10.0795C154.431 9.85227 155.184 9.73864 155.974 9.73864C156.496 9.73864 157.05 9.80114 157.636 9.92614C158.227 10.0455 158.778 10.267 159.289 10.5909C159.806 10.9148 160.229 11.3778 160.559 11.9801C160.888 12.5767 161.053 13.3523 161.053 14.3068V23H158.565V21.2102H158.462C158.298 21.5398 158.05 21.8636 157.721 22.1818C157.391 22.5 156.968 22.7642 156.451 22.9744C155.934 23.1847 155.315 23.2898 154.593 23.2898ZM155.147 21.2443C155.852 21.2443 156.454 21.1051 156.954 20.8267C157.46 20.5483 157.843 20.1847 158.104 19.7358C158.371 19.2812 158.505 18.7955 158.505 18.2784V16.5909C158.414 16.6818 158.238 16.767 157.977 16.8466C157.721 16.9205 157.428 16.9858 157.099 17.0426C156.769 17.0937 156.448 17.142 156.136 17.1875C155.823 17.2273 155.562 17.2614 155.352 17.2898C154.857 17.3523 154.406 17.4574 153.996 17.6051C153.593 17.7528 153.269 17.9659 153.025 18.2443C152.786 18.517 152.667 18.8807 152.667 19.3352C152.667 19.9659 152.9 20.4432 153.366 20.767C153.832 21.0852 154.425 21.2443 155.147 21.2443ZM174.257 13.1051L171.947 13.5142C171.851 13.2187 171.697 12.9375 171.487 12.6705C171.283 12.4034 171.004 12.1847 170.652 12.0142C170.3 11.8437 169.859 11.7585 169.331 11.7585C168.609 11.7585 168.007 11.9205 167.524 12.2443C167.041 12.5625 166.8 12.9744 166.8 13.4801C166.8 13.9176 166.962 14.2699 167.286 14.5369C167.609 14.804 168.132 15.0227 168.854 15.1932L170.933 15.6705C172.138 15.9489 173.036 16.3778 173.626 16.9574C174.217 17.5369 174.513 18.2898 174.513 19.2159C174.513 20 174.286 20.6989 173.831 21.3125C173.382 21.9205 172.754 22.3977 171.947 22.7443C171.146 23.0909 170.217 23.2642 169.161 23.2642C167.695 23.2642 166.499 22.9517 165.572 22.3267C164.646 21.696 164.078 20.8011 163.868 19.642L166.331 19.267C166.484 19.9091 166.8 20.3949 167.277 20.7244C167.754 21.0483 168.376 21.2102 169.143 21.2102C169.979 21.2102 170.646 21.0369 171.146 20.6903C171.646 20.3381 171.896 19.9091 171.896 19.4034C171.896 18.9943 171.743 18.6506 171.436 18.3722C171.135 18.0937 170.672 17.8835 170.047 17.7415L167.831 17.2557C166.609 16.9773 165.706 16.5341 165.121 15.9261C164.541 15.3182 164.251 14.5483 164.251 13.6165C164.251 12.8437 164.467 12.1676 164.899 11.5881C165.331 11.0085 165.928 10.5568 166.689 10.233C167.45 9.90341 168.322 9.73864 169.305 9.73864C170.72 9.73864 171.834 10.0455 172.646 10.6591C173.459 11.267 173.996 12.0824 174.257 13.1051ZM179.658 18.5597L179.641 15.4489H180.085L185.3 9.90909H188.352L182.403 16.2159H182.002L179.658 18.5597ZM177.315 23V5.54545H179.863V23H177.315ZM185.582 23L180.894 16.7784L182.65 14.9972L188.71 23H185.582ZM200.484 13.1051L198.174 13.5142C198.077 13.2187 197.924 12.9375 197.714 12.6705C197.509 12.4034 197.231 12.1847 196.879 12.0142C196.526 11.8437 196.086 11.7585 195.558 11.7585C194.836 11.7585 194.234 11.9205 193.751 12.2443C193.268 12.5625 193.026 12.9744 193.026 13.4801C193.026 13.9176 193.188 14.2699 193.512 14.5369C193.836 14.804 194.359 15.0227 195.08 15.1932L197.16 15.6705C198.364 15.9489 199.262 16.3778 199.853 16.9574C200.444 17.5369 200.739 18.2898 200.739 19.2159C200.739 20 200.512 20.6989 200.058 21.3125C199.609 21.9205 198.981 22.3977 198.174 22.7443C197.373 23.0909 196.444 23.2642 195.387 23.2642C193.921 23.2642 192.725 22.9517 191.799 22.3267C190.873 21.696 190.305 20.8011 190.094 19.642L192.558 19.267C192.711 19.9091 193.026 20.3949 193.504 20.7244C193.981 21.0483 194.603 21.2102 195.37 21.2102C196.205 21.2102 196.873 21.0369 197.373 20.6903C197.873 20.3381 198.123 19.9091 198.123 19.4034C198.123 18.9943 197.969 18.6506 197.663 18.3722C197.362 18.0937 196.898 17.8835 196.273 17.7415L194.058 17.2557C192.836 16.9773 191.933 16.5341 191.347 15.9261C190.768 15.3182 190.478 14.5483 190.478 13.6165C190.478 12.8437 190.694 12.1676 191.126 11.5881C191.558 11.0085 192.154 10.5568 192.915 10.233C193.677 9.90341 194.549 9.73864 195.532 9.73864C196.947 9.73864 198.06 10.0455 198.873 10.6591C199.685 11.267 200.222 12.0824 200.484 13.1051Z" fill="black"/>
<path d="M7.29528 22.7029C7.38884 22.795 7.49965 22.8679 7.62137 22.9173C7.7431 22.9666 7.87335 22.9915 8.0047 22.9906C8.13605 22.9896 8.26592 22.9627 8.3869 22.9116C8.50787 22.8604 8.61759 22.7859 8.70978 22.6924C8.80196 22.5988 8.87482 22.488 8.92418 22.3663C8.97355 22.2445 8.99845 22.1143 8.99748 21.9829C8.9965 21.8516 8.96967 21.7217 8.9185 21.6007C8.86734 21.4798 8.79284 21.37 8.69928 21.2779L3.32928 15.9879H16.9993C17.2645 15.9879 17.5188 15.8825 17.7064 15.695C17.8939 15.5074 17.9993 15.2531 17.9993 14.9879C17.9993 14.7226 17.8939 14.4683 17.7064 14.2807C17.5188 14.0932 17.2645 13.9879 16.9993 13.9879H3.33628L8.70028 8.70086C8.88423 8.51364 8.9872 8.2616 8.98697 7.99913C8.98674 7.73667 8.88334 7.48481 8.69906 7.29791C8.51479 7.11101 8.26442 7.00405 8.00198 7.00011C7.73954 6.99617 7.48608 7.09557 7.29628 7.27685L0.372276 14.0989C0.254359 14.2151 0.160727 14.3537 0.0968184 14.5065C0.0329101 14.6593 0 14.8232 0 14.9889C0 15.1545 0.0329101 15.3184 0.0968184 15.4712C0.160727 15.624 0.254359 15.7626 0.372276 15.8789L7.29628 22.7019L7.29528 22.7029Z" fill="#212121"/>
</svg>
