<svg width="26" height="24" viewBox="0 0 26 24" fill="none" xmlns="http://www.w3.org/2000/svg">
<g filter="url(#filter0_dd_131_2)">
<path d="M14.7473 0.297414C14.6543 0.204701 14.5439 0.131223 14.4224 0.0811758C14.301 0.0311285 14.1709 0.00549228 14.0395 0.00572917C13.9082 0.00596606 13.7781 0.0320727 13.6569 0.0825578C13.5356 0.133043 13.4255 0.206918 13.3328 0.299965C13.2401 0.393012 13.1666 0.503408 13.1165 0.624852C13.0665 0.746296 13.0408 0.87641 13.0411 1.00776C13.0413 1.13911 13.0674 1.26913 13.1179 1.39039C13.1684 1.51166 13.2423 1.62179 13.3353 1.7145L18.6755 7.03459L5.00572 6.95778C4.74051 6.95629 4.48557 7.06021 4.29698 7.24669C4.10839 7.43317 4.00161 7.68693 4.00012 7.95214C3.99863 8.21735 4.10256 8.47229 4.28903 8.66088C4.47551 8.84947 4.72927 8.95625 4.99449 8.95774L18.6573 9.03452L13.2636 14.2913C13.0786 14.4775 12.9743 14.7289 12.973 14.9914C12.9718 15.2539 13.0738 15.5063 13.257 15.6942C13.4402 15.8822 13.69 15.9905 13.9524 15.9959C14.2148 16.0013 14.4688 15.9034 14.6596 15.7232L21.6218 8.94018C21.7404 8.82455 21.8348 8.68652 21.8996 8.5341C21.9644 8.38167 21.9982 8.2179 21.9991 8.05229C22 7.88668 21.9681 7.72253 21.905 7.56939C21.842 7.41625 21.7491 7.27716 21.6318 7.16021L14.7463 0.298408L14.7473 0.297414Z" fill="#212121"/>
</g>
<defs>
<filter id="filter0_dd_131_2" x="0.00012207" y="0.0057373" width="25.999" height="23.9904" filterUnits="userSpaceOnUse" color-interpolation-filters="sRGB">
<feFlood flood-opacity="0" result="BackgroundImageFix"/>
<feColorMatrix in="SourceAlpha" type="matrix" values="0 0 0 0 0 0 0 0 0 0 0 0 0 0 0 0 0 0 127 0" result="hardAlpha"/>
<feOffset dy="4"/>
<feGaussianBlur stdDeviation="2"/>
<feComposite in2="hardAlpha" operator="out"/>
<feColorMatrix type="matrix" values="0 0 0 0 0 0 0 0 0 0 0 0 0 0 0 0 0 0 0.25 0"/>
<feBlend mode="normal" in2="BackgroundImageFix" result="effect1_dropShadow_131_2"/>
<feColorMatrix in="SourceAlpha" type="matrix" values="0 0 0 0 0 0 0 0 0 0 0 0 0 0 0 0 0 0 127 0" result="hardAlpha"/>
<feOffset dy="4"/>
<feGaussianBlur stdDeviation="2"/>
<feComposite in2="hardAlpha" operator="out"/>
<feColorMatrix type="matrix" values="0 0 0 0 0 0 0 0 0 0 0 0 0 0 0 0 0 0 0.25 0"/>
<feBlend mode="normal" in2="effect1_dropShadow_131_2" result="effect2_dropShadow_131_2"/>
<feBlend mode="normal" in="SourceGraphic" in2="effect2_dropShadow_131_2" result="shape"/>
</filter>
</defs>
</svg>
